<svg xmlns="http://www.w3.org/2000/svg" width="29.25" height="29.25" viewBox="0 0 29.25 29.25"><defs><style>.a{fill:#fff;}</style></defs><g transform="translate(-3.375 -3.375)"><path class="a" d="M25.5,13.563l-1.237-1.272a.267.267,0,0,0-.2-.084.256.256,0,0,0-.2.084l-8.578,8.641L12.164,17.81a.273.273,0,0,0-.394,0l-1.252,1.252a.28.28,0,0,0,0,.4L14.456,23.4a1.247,1.247,0,0,0,.823.4,1.3,1.3,0,0,0,.816-.387H16.1l9.4-9.45a.3.3,0,0,0-.007-.4Z"/><path class="a" d="M18,5.344a12.65,12.65,0,1,1-8.951,3.7A12.576,12.576,0,0,1,18,5.344m0-1.969A14.625,14.625,0,1,0,32.625,18,14.623,14.623,0,0,0,18,3.375Z"/></g></svg>